<?xml version="1.0" encoding="UTF-8"?>
<svg version="1.1" xmlns="http://www.w3.org/2000/svg" width="500" height="500">
<path d="M0 0 C3.84223567 1.50944973 5.51995823 3.76843042 8 7 C10.55195846 9.68627207 13.1226507 12.0996537 16 14.4375 C19.07903881 17.06751232 21.45078401 19.8625034 24 23 C26.3435466 25.45786595 28.56956097 27.68589584 31.3125 29.6875 C31.869375 30.120625 32.42625 30.55375 33 31 C33 31.66 33 32.32 33 33 C33.66 33 34.32 33 35 33 C36.48046875 34.5390625 36.48046875 34.5390625 38.1875 36.625 C40.4835869 39.33466777 42.75017804 41.75296716 45.5 44 C48.83970972 46.74814679 51.5751093 49.82981583 54.375 53.1171875 C56.46490747 55.53866683 58.70900065 57.76929011 61 60 C62.66666667 61.66666667 64.33333333 63.33333333 66 65 C66.763125 65.721875 67.52625 66.44375 68.3125 67.1875 C70 69 70 69 70 71 C70.639375 71.268125 71.27875 71.53625 71.9375 71.8125 C74 73 74 73 75 76 C75.66 76 76.32 76 77 76 C77 76.66 77 77.32 77 78 C77.66 78 78.32 78 79 78 C79 78.66 79 79.32 79 80 C79.639375 80.268125 80.27875 80.53625 80.9375 80.8125 C83 82 83 82 84 85 C84.66 85 85.32 85 86 85 C83.17959542 91.17476926 78.35904107 95.93932905 73.25 100.3125 C69.71351166 103.33978982 66.29187231 106.46086749 62.9375 109.6875 C62.43573242 110.1513208 61.93396484 110.6151416 61.41699219 111.09301758 C59.84006104 112.57515784 59.84006104 112.57515784 58 115 C57.9734623 118.51624518 60.06551247 120.62295106 62.3125 123.1875 C62.90675781 123.88230469 63.50101563 124.57710938 64.11328125 125.29296875 C66.11916104 127.10781237 67.35856894 127.60932477 70 128 C70.44730469 127.46890625 70.89460937 126.9378125 71.35546875 126.390625 C74.68346775 122.50204621 77.91808142 119.11514839 82 116 C85.03045221 113.12904527 87.78657664 110.10316059 90.5 106.9375 C93.12287557 103.9058646 95.80596039 101.43755654 99 99 C102.64017944 95.54182953 105.81806614 91.86991955 109 88 C109.66 87.34 110.32 86.68 111 86 C110.13375 85.15695313 109.2675 84.31390625 108.375 83.4453125 C107.24973959 82.33880643 106.12475372 81.23202112 105 80.125 C104.42765625 79.56941406 103.8553125 79.01382813 103.265625 78.44140625 C101.80549218 76.99865596 100.39850702 75.5025626 99 74 C99 73.34 99 72.68 99 72 C98.443125 71.773125 97.88625 71.54625 97.3125 71.3125 C94.33840412 69.62449964 92.27991135 67.53323483 90 65 C90 64.34 90 63.68 90 63 C89.401875 62.731875 88.80375 62.46375 88.1875 62.1875 C86.00152146 61.00082594 84.58667406 59.90400887 83 58 C83 57.34 83 56.68 83 56 C82.443125 55.773125 81.88625 55.54625 81.3125 55.3125 C78.33840412 53.62449964 76.27991135 51.53323483 74 49 C74 48.34 74 47.68 74 47 C73.401875 46.731875 72.80375 46.46375 72.1875 46.1875 C70.00152146 45.00082594 68.58667406 43.90400887 67 42 C67 41.34 67 40.68 67 40 C66.443125 39.773125 65.88625 39.54625 65.3125 39.3125 C62.33840412 37.62449964 60.27991135 35.53323483 58 33 C58 32.34 58 31.68 58 31 C57.20335937 30.690625 57.20335937 30.690625 56.390625 30.375 C52.99226564 28.42038808 50.48944072 25.77876283 47.75 23 C47.19570312 22.4534375 46.64140625 21.906875 46.0703125 21.34375 C42 17.2533867 42 17.2533867 42 15 C41.38125 14.7525 40.7625 14.505 40.125 14.25 C37.64931313 12.79371361 37.04874998 11.62187494 36 9 C36.804375 8.38125 37.60875 7.7625 38.4375 7.125 C41.03874519 5.25835959 41.03874519 5.25835959 42 3 C42.66 3 43.32 3 44 3 C44 2.34 44 1.68 44 1 C48.08335544 1.52886833 49.94353018 3.59629038 52.765625 6.47265625 C53.65507812 7.37177734 54.54453125 8.27089844 55.4609375 9.19726562 C56.38132812 10.14279297 57.30171875 11.08832031 58.25 12.0625 C59.19461673 13.02216973 60.13992195 13.98116229 61.0859375 14.93945312 C63.39749172 17.28638828 65.7017634 19.64003391 68 22 C72.40206356 18.41692501 76.4300669 14.66779177 80.37207031 10.57568359 C81.78567238 9.1089862 83.20523021 7.64822469 84.625 6.1875 C85.10195313 5.68541016 85.57890625 5.18332031 86.0703125 4.66601562 C87.32390002 3.3863117 88.6577697 2.18639861 90 1 C90.99 1 91.98 1 93 1 C93 1.66 93 2.32 93 3 C93.66 3 94.32 3 95 3 C95 3.66 95 4.32 95 5 C95.66 5 96.32 5 97 5 C97 5.66 97 6.32 97 7 C97.99 7.33 98.98 7.66 100 8 C100 8.66 100 9.32 100 10 C100.66 10 101.32 10 102 10 C102 10.66 102 11.32 102 12 C102.66 12 103.32 12 104 12 C104 12.66 104 13.32 104 14 C104.99 14.33 105.98 14.66 107 15 C107 15.66 107 16.32 107 17 C107.66 17 108.32 17 109 17 C109 17.66 109 18.32 109 19 C109.66 19 110.32 19 111 19 C111 19.66 111 20.32 111 21 C111.66 21 112.32 21 113 21 C113 21.66 113 22.32 113 23 C113.99 23.33 114.98 23.66 116 24 C116 24.66 116 25.32 116 26 C116.66 26 117.32 26 118 26 C118 26.66 118 27.32 118 28 C118.66 28 119.32 28 120 28 C120 28.66 120 29.32 120 30 C120.639375 30.268125 121.27875 30.53625 121.9375 30.8125 C124 32 124 32 125 35 C125.66 35 126.32 35 127 35 C127 35.66 127 36.32 127 37 C127.66 37 128.32 37 129 37 C129 37.66 129 38.32 129 39 C129.99 39.33 130.98 39.66 132 40 C132 40.66 132 41.32 132 42 C132.66 42 133.32 42 134 42 C134 42.66 134 43.32 134 44 C134.556875 44.226875 135.11375 44.45375 135.6875 44.6875 C138.66159588 46.37550036 140.72008865 48.46676517 143 51 C143 51.66 143 52.32 143 53 C143.639375 53.268125 144.27875 53.53625 144.9375 53.8125 C147 55 147 55 148 58 C150.00016466 59.20882096 150.00016466 59.20882096 152 60 C152 60.66 152 61.32 152 62 C152.639375 62.268125 153.27875 62.53625 153.9375 62.8125 C156 64 156 64 157 67 C157.66 67 158.32 67 159 67 C159 67.66 159 68.32 159 69 C159.66 69 160.32 69 161 69 C161 69.66 161 70.32 161 71 C161.639375 71.268125 162.27875 71.53625 162.9375 71.8125 C165 73 165 73 166 76 C168.00016466 77.20882096 168.00016466 77.20882096 170 78 C170 78.66 170 79.32 170 80 C170.639375 80.268125 171.27875 80.53625 171.9375 80.8125 C174 82 174 82 175 85 C175.66 85 176.32 85 177 85 C175.70620946 87.84601336 174.34695352 89.90158262 172.13566589 92.10484314 C171.25889442 92.9857386 171.25889442 92.9857386 170.3644104 93.88442993 C169.40515152 94.83290298 169.40515152 94.83290298 168.42651367 95.80053711 C167.41399788 96.81349098 167.41399788 96.81349098 166.38102722 97.84690857 C164.14804894 100.07849353 161.90806637 102.30290725 159.66796875 104.52734375 C158.11295169 106.07862866 156.5583771 107.63035723 155.00422668 109.18251038 C150.90880826 113.27029147 146.80742456 117.35203631 142.70477295 121.43255615 C138.54113908 125.57579737 134.38309398 129.72463859 130.22460938 133.87304688 C123.50090296 140.57917126 116.77377156 147.28183673 110.04217529 153.9800415 C103.89938226 160.07185034 103.89938226 160.07185034 97.83203125 166.23828125 C97.16558594 166.92277344 96.49914062 167.60726562 95.8125 168.3125 C95.13832031 169.00988281 94.46414063 169.70726562 93.76953125 170.42578125 C92 172 92 172 90 172 C90 171.34 90 170.68 90 170 C89.34 170 88.68 170 88 170 C88 169.34 88 168.68 88 168 C87.401875 167.731875 86.80375 167.46375 86.1875 167.1875 C84.00152146 166.00082594 82.58667406 164.90400887 81 163 C81 162.34 81 161.68 81 161 C80.443125 160.773125 79.88625 160.54625 79.3125 160.3125 C76.33840412 158.62449964 74.27991135 156.53323483 72 154 C72 153.34 72 152.68 72 152 C71.360625 151.731875 70.72125 151.46375 70.0625 151.1875 C68 150 68 150 67 147 C66.13375 146.566875 66.13375 146.566875 65.25 146.125 C62.20774755 144.60387378 60.26157493 142.51286104 58 140 C58 139.34 58 138.68 58 138 C57.34 138 56.68 138 56 138 C56 137.34 56 136.68 56 136 C55.360625 135.731875 54.72125 135.46375 54.0625 135.1875 C52 134 52 134 51 131 C50.34 131 49.68 131 49 131 C49 130.34 49 129.68 49 129 C48.401875 128.731875 47.80375 128.46375 47.1875 128.1875 C45.00152146 127.00082594 43.58667406 125.90400887 42 124 C42 123.34 42 122.68 42 122 C41.34 122 40.68 122 40 122 C40 121.34 40 120.68 40 120 C39.360625 119.731875 38.72125 119.46375 38.0625 119.1875 C36 118 36 118 35 115 C34.34 115 33.68 115 33 115 C33 114.34 33 113.68 33 113 C32.1028125 112.5978125 32.1028125 112.5978125 31.1875 112.1875 C29.00152146 111.00082594 27.58667406 109.90400887 26 108 C26 107.34 26 106.68 26 106 C25.34 106 24.68 106 24 106 C24 105.34 24 104.68 24 104 C23.360625 103.731875 22.72125 103.46375 22.0625 103.1875 C20 102 20 102 19 99 C18.34 99 17.68 99 17 99 C17 98.34 17 97.68 17 97 C16.1028125 96.5978125 16.1028125 96.5978125 15.1875 96.1875 C13.00152146 95.00082594 11.58667406 93.90400887 10 92 C10 91.34 10 90.68 10 90 C9.34 90 8.68 90 8 90 C8 89.34 8 88.68 8 88 C7.34 88 6.68 88 6 88 C6.55401739 84.09704683 8.30656393 82.34309424 11.078125 79.62890625 C11.90957031 78.80712891 12.74101562 77.98535156 13.59765625 77.13867188 C14.47292969 76.28853516 15.34820312 75.43839844 16.25 74.5625 C17.53970703 73.2930957 17.53970703 73.2930957 18.85546875 71.99804688 C22.18036883 68.72693948 25.51818847 65.46930549 28.859375 62.21484375 C31.07524355 59.92214764 33.05330752 57.52349026 35 55 C33.45672226 53.29490284 31.8896325 51.6113326 30.3125 49.9375 C29.44238281 48.99777344 28.57226562 48.05804688 27.67578125 47.08984375 C25.27519853 44.78934742 25.27519853 44.78934742 22.78979492 44.93676758 C18.4880686 46.57621959 15.8548041 49.65526567 12.6875 52.921875 C11.99615967 53.61887512 11.30481934 54.31587524 10.5925293 55.03399658 C8.38544419 57.26344154 6.19264629 59.50636194 4 61.75 C2.52436499 63.24570727 1.04781213 64.74050962 -0.4296875 66.234375 C-3.74698174 69.59145505 -7.05662988 72.95576556 -10.35302734 76.33337402 C-11.82123733 77.81910416 -13.32442726 79.27008008 -14.83203125 80.71582031 C-17.27838568 83.07116172 -17.27838568 83.07116172 -19 87 C5.75 111.75 30.5 136.5 56 162 C55.34 162.33 54.68 162.66 54 163 C54 163.66 54 164.32 54 165 C53.34 165 52.68 165 52 165 C51.67 165.99 51.34 166.98 51 168 C50.34 168 49.68 168 49 168 C49 168.66 49 169.32 49 170 C48.34 170 47.68 170 47 170 C47.33 170.99 47.66 171.98 48 173 C48.969375 172.79375 49.93875 172.5875 50.9375 172.375 C58.44917687 171.34724542 64.74321104 174.08401983 71.25 177.5859375 C73 179 73 179 73.875 180.9765625 C74 183 74 183 72 186 C68.44284122 186.73235622 66.43212409 185.74945815 63.4375 184 C58.12185664 181.19647543 52.87225044 181.08443407 47 182 C41.09731877 184.33807503 36.88468609 188.2609039 34.02734375 193.9296875 C31.42775882 200.25421881 31.97370963 205.5499767 34 212 C36.53400547 217.06801094 40.02199015 220.3794409 45 223 C50.68223303 224.47317153 57.58314009 224.74259856 62.953125 222.00390625 C63.54609375 221.63136719 64.1390625 221.25882813 64.75 220.875 C68 219 68 219 70.9375 219.25 C71.618125 219.4975 72.29875 219.745 73 220 C73.33 221.65 73.66 223.3 74 225 C73.34 225 72.68 225 72 225 C72 225.66 72 226.32 72 227 C70.3970947 227.81498562 68.79262722 228.62689927 67.1875 229.4375 C65.84751953 230.11619141 65.84751953 230.11619141 64.48046875 230.80859375 C58.71970682 233.57557389 53.29068107 233.78633513 47 233 C39.45624755 230.24293809 31.94554009 226.20791442 27.25 219.5 C26.84265625 218.9328125 26.4353125 218.365625 26.015625 217.78125 C24.91325172 215.84785686 24.44010016 214.17461257 24 212 C23.79375 211.01 23.5875 210.02 23.375 209 C22.27808299 200.63825561 23.02372214 191.98186864 28 185 C32.11110663 179.91850525 36.7824731 176.17613441 43 174 C43.99 174 44.98 174 46 174 C41.52763752 168.58608752 36.68646023 163.54978608 31.75 158.5625 C31.13560059 157.93520996 30.52120117 157.30791992 29.88818359 156.66162109 C29.30117676 156.0733252 28.71416992 155.4850293 28.109375 154.87890625 C27.31998535 154.08335327 27.31998535 154.08335327 26.51464844 153.27172852 C24.90907056 151.76533406 24.90907056 151.76533406 22 151 C18.84196452 154.0710434 15.70080318 157.15880502 12.5625 160.25 C11.66466797 161.12269531 10.76683594 161.99539063 9.84179688 162.89453125 C8.98779297 163.73886719 8.13378906 164.58320313 7.25390625 165.453125 C6.06776733 166.61569824 6.06776733 166.61569824 4.85766602 167.80175781 C3.0229613 169.97282908 2.37883034 171.22375431 2 174 C3.0828125 174.1546875 3.0828125 174.1546875 4.1875 174.3125 C8.30677275 175.31943334 10.99508293 176.81563345 13.75 180.0625 C15.55821078 184.31179534 16.28098671 188.37850799 16 193 C14.94393998 195.41314649 13.69972703 196.93972481 12 199 C12 199.66 12 200.32 12 201 C13.175625 202.11375 13.175625 202.11375 14.375 203.25 C18.08109093 207.13257145 18.84172428 210.22731191 19.3125 215.5 C18.963576 219.40794878 18.13562429 221.72029126 16 225 C13.8125 226.375 13.8125 226.375 12 227 C12 227.66 12 228.32 12 229 C7.62829222 231.11673598 3.40371447 231.46993912 -1.375 231.6875 C-2.16140869 231.72584961 -2.94781738 231.76419922 -3.75805664 231.80371094 C-23.82517005 232.61972642 -23.82517005 232.61972642 -27.66056824 229.76327515 C-29.40759559 227.4634268 -29.37444407 226.11236908 -29.37231445 223.24072266 C-29.37854324 222.27607086 -29.38477203 221.31141907 -29.39118958 220.3175354 C-29.38197983 219.27688934 -29.37277008 218.23624329 -29.36328125 217.1640625 C-29.36402901 215.55680801 -29.36402901 215.55680801 -29.36479187 213.91708374 C-29.36245012 211.64913073 -29.35271569 209.38117519 -29.33618164 207.11328125 C-29.31263982 203.64559599 -29.31561394 200.17868209 -29.32226562 196.7109375 C-29.31668714 194.50780792 -29.3095762 192.30468158 -29.30078125 190.1015625 C-29.30214836 188.54666611 -29.30214836 188.54666611 -29.30354309 186.96035767 C-29.29401108 185.98940155 -29.28447906 185.01844543 -29.2746582 184.01806641 C-29.27005081 183.16773834 -29.26544342 182.31741028 -29.26069641 181.4413147 C-28.96209295 178.6450161 -28.24079901 176.51878628 -27 174 C-23.65786445 172.32893222 -19.9210531 172.85757412 -16.25 172.875 C-15.45078125 172.87113281 -14.6515625 172.86726562 -13.828125 172.86328125 C-9.43961182 172.8704992 -5.32026834 173.12200998 -1 174 C-1.77479736 171.00847418 -1.77479736 171.00847418 -3 168 C-3.99 167.67 -4.98 167.34 -6 167 C-6 166.34 -6 165.68 -6 165 C-6.53109375 164.79375 -7.0621875 164.5875 -7.609375 164.375 C-11.00773436 162.42038808 -13.51055928 159.77876283 -16.25 157 C-16.80429688 156.4534375 -17.35859375 155.906875 -17.9296875 155.34375 C-22 151.2533867 -22 151.2533867 -22 149 C-22.66 149 -23.32 149 -24 149 C-24 148.34 -24 147.68 -24 147 C-24.66 147 -25.32 147 -26 147 C-26 146.34 -26 145.68 -26 145 C-26.85851562 144.62875 -26.85851562 144.62875 -27.734375 144.25 C-30.35010611 142.80683801 -32.14773456 141.11783778 -34.25 139 C-34.95640625 138.29875 -35.6628125 137.5975 -36.390625 136.875 C-38 135 -38 135 -38 133 C-38.53109375 132.79375 -39.0621875 132.5875 -39.609375 132.375 C-43.00773436 130.42038808 -45.51055928 127.77876283 -48.25 125 C-48.80429688 124.4534375 -49.35859375 123.906875 -49.9296875 123.34375 C-54 119.2533867 -54 119.2533867 -54 117 C-54.56203125 116.7628125 -55.1240625 116.525625 -55.703125 116.28125 C-58.51894042 114.71052303 -60.47955416 112.78528536 -62.75 110.5 C-63.54921875 109.7059375 -64.3484375 108.911875 -65.171875 108.09375 C-67 106 -67 106 -67 104 C-67.598125 103.731875 -68.19625 103.46375 -68.8125 103.1875 C-70.99847854 102.00082594 -72.41332594 100.90400887 -74 99 C-74 98.34 -74 97.68 -74 97 C-74.9590625 96.5978125 -74.9590625 96.5978125 -75.9375 96.1875 C-78 95 -78 95 -79 92 C-79.928125 91.5359375 -79.928125 91.5359375 -80.875 91.0625 C-83.41594441 89.79202779 -84.37984001 88.29136913 -86 86 C-64.71495056 64.71495056 -43.42990112 43.42990112 -22.14485168 22.14485168 C-21.6094961 21.608771 -21.07414051 21.07269032 -20.52256203 20.52036476 C-19.09510877 19.09497151 -17.6601417 17.67711415 -16.22465515 16.2598114 C-13.89984822 13.9736055 -13.89984822 13.9736055 -11.6875 11.125 C-8.55821349 7.27587762 -4.77065434 4.19800824 -1 1 C-0.67 0.67 -0.34 0.34 0 0 Z M-2.53393555 22.16162109 C-3.062854 22.69352051 -3.59177246 23.22541992 -4.13671875 23.7734375 C-4.71357422 24.3509375 -5.29042969 24.9284375 -5.88476562 25.5234375 C-6.47966797 26.13445312 -7.07457031 26.74546875 -7.6875 27.375 C-8.29400391 27.97828125 -8.90050781 28.5815625 -9.52539062 29.203125 C-12.847281 32.0986197 -12.847281 32.0986197 -14 36 C-14.66 36 -15.32 36 -16 36 C-16 36.66 -16 37.32 -16 38 C-16.66 38 -17.32 38 -18 38 C-18 38.66 -18 39.32 -18 40 C-18.53375244 40.20778076 -19.06750488 40.41556152 -19.61743164 40.62963867 C-22.95314255 42.54821079 -25.44665778 45.20153657 -28.12109375 47.92578125 C-28.7028688 48.5103862 -29.28464386 49.09499115 -29.88404846 49.6973114 C-31.73995842 51.56438702 -33.58880352 53.43828434 -35.4375 55.3125 C-36.67727058 56.5623092 -37.91750025 57.81166318 -39.15820312 59.06054688 C-41.95580103 61.87805918 -44.7496372 64.69920801 -47.53659058 67.5272522 C-48.95195964 68.95165308 -50.38790635 70.35551507 -51.82446289 71.75854492 C-54.05483717 73.82255622 -54.05483717 73.82255622 -55.0625 76.1875 C-56 78 -56 78 -57.8125 78.875 C-61.08511196 80.55805758 -62.74179814 83.11451985 -65 86 C-62.37159758 90.18597423 -59.71846873 93.67294903 -56 97 C-55.34 97 -54.68 97 -54 97 C-53.731875 97.598125 -53.46375 98.19625 -53.1875 98.8125 C-52.00082594 100.99847854 -50.90400887 102.41332594 -49 104 C-48.34 104 -47.68 104 -47 104 C-46.731875 104.639375 -46.46375 105.27875 -46.1875 105.9375 C-45.11332248 108.33131686 -45.11332248 108.33131686 -42 109 C-41.33333333 110.33333333 -40.66666667 111.66666667 -40 113 C-38.3777546 114.70993434 -36.70586575 116.37347684 -35 118 C-30 123 -30 123 -28.421875 124.6484375 C-26.98421868 126.13494622 -25.49513424 127.57131617 -24 129 C-23.34 129 -22.68 129 -22 129 C-21.79375 129.556875 -21.5875 130.11375 -21.375 130.6875 C-19.84491107 133.26083139 -17.99204548 134.73050355 -15.65625 136.5625 C-13.22611659 138.6716724 -11.29200393 141.12916709 -9.296875 143.64453125 C-8.86890625 144.09183594 -8.4409375 144.53914063 -8 145 C-7.34 145 -6.68 145 -6 145 C-5.731875 145.598125 -5.46375 146.19625 -5.1875 146.8125 C-4.01506533 148.97224808 -2.80630718 150.35790256 -1 152 C2.10632572 150.58295703 4.5825814 148.89166189 7.1875 146.6875 C7.88230469 146.11386719 8.57710938 145.54023438 9.29296875 144.94921875 C11.50609454 142.42210257 12.02396447 141.39068052 12 138 C10.14143103 135.24185321 7.77452936 133.03118057 5.38671875 130.73046875 C4.70196976 130.04946609 4.01722076 129.36846344 3.3117218 128.66682434 C1.86166575 127.23021488 0.4044311 125.80082064 -1.05932617 124.37817383 C-3.30722672 122.19262701 -5.53303487 119.9864086 -7.75585938 117.77539062 C-9.16542769 116.38416024 -10.57619521 114.9941436 -11.98828125 113.60546875 C-12.65918289 112.94306686 -13.33008453 112.28066498 -14.02131653 111.59819031 C-14.64503647 110.99368546 -15.26875641 110.3891806 -15.91137695 109.76635742 C-16.4606636 109.23072678 -17.00995026 108.69509613 -17.57588196 108.14323425 C-18.95556766 106.79133013 -18.95556766 106.79133013 -21 107 C-21.25136719 106.42121094 -21.50273437 105.84242188 -21.76171875 105.24609375 C-23.15592914 102.71716323 -24.73790358 101.0656954 -26.8125 99.0625 C-27.52277344 98.37285156 -28.23304688 97.68320313 -28.96484375 96.97265625 C-29.63644531 96.32167969 -30.30804688 95.67070312 -31 95 C-31.9600479 94.00164595 -32.91871467 93.00195866 -33.875 92 C-35.75637427 89.7715451 -35.75637427 89.7715451 -38 90 C-38.66 88.35 -39.32 86.7 -40 85 C-39.34 85 -38.68 85 -38 85 C-35.33333333 82.66666667 -35.33333333 82.66666667 -33 80 C-33 79.34 -33 78.68 -33 78 C-32.34 78 -31.68 78 -31 78 C-29.76537973 76.56517103 -28.53657325 75.12450352 -27.3515625 73.6484375 C-24.47324657 70.13789032 -21.21669447 67.14579697 -17.6875 64.3125 C-16.3571875 63.1678125 -16.3571875 63.1678125 -15 62 C-15 61.34 -15 60.68 -15 60 C-14.34 60 -13.68 60 -13 60 C-10.33333333 57.66666667 -10.33333333 57.66666667 -8 55 C-8 54.34 -8 53.68 -8 53 C-7.34 53 -6.68 53 -6 53 C-4.31267723 51.01739574 -2.64633943 49.0167658 -1 47 C-0.01 46.505 -0.01 46.505 1 46 C1 45.34 1 44.68 1 44 C1.66 44 2.32 44 3 44 C5.66666667 41.66666667 5.66666667 41.66666667 8 39 C8 38.34 8 37.68 8 37 C8.66 37 9.32 37 10 37 C10 36.34 10 35.68 10 35 C10.66 35 11.32 35 12 35 C11.40300869 31.66864109 10.27987719 29.78724333 8.0625 27.25 C7.53785156 26.63640625 7.01320313 26.0228125 6.47265625 25.390625 C5.09522384 23.77114437 5.09522384 23.77114437 3 24 C2.505 22.515 2.505 22.515 2 21 C-0.92208779 20.69814567 -0.92208779 20.69814567 -2.53393555 22.16162109 Z M86 24 C86 24.66 86 25.32 86 26 C85.34 26 84.68 26 84 26 C82.64287834 27.55855981 82.64287834 27.55855981 81.375 29.5 C80.92898438 30.1496875 80.48296875 30.799375 80.0234375 31.46875 C79.68570313 31.9740625 79.34796875 32.479375 79 33 C80.09655288 34.31886772 81.20253423 35.62990057 82.3125 36.9375 C82.92738281 37.66839844 83.54226563 38.39929688 84.17578125 39.15234375 C85.95975519 41.23820366 85.95975519 41.23820366 89 42 C89.6807132 43.32621709 90.34459256 44.66109623 91 46 C92.44766386 47.63132271 93.95275503 49.21280208 95.5 50.75 C96.2940625 51.54921875 97.088125 52.3484375 97.90625 53.171875 C99.78783462 55.21923609 99.78783462 55.21923609 102 55 C102.226875 55.556875 102.45375 56.11375 102.6875 56.6875 C104.37024288 59.6523327 106.56116488 61.61660771 109 64 C116.33333333 71.33333333 123.66666667 78.66666667 131 86 C126.57698853 91.30510707 121.89802613 96.20827884 116.9765625 101.05078125 C115.44648604 102.56822977 113.91654186 104.08581169 112.38671875 105.60351562 C109.99193675 107.97333654 107.59557532 110.34151937 105.19677734 112.70727539 C102.86905969 115.00496865 100.54745295 117.30869509 98.2265625 119.61328125 C97.13923325 120.68042107 97.13923325 120.68042107 96.02993774 121.76911926 C95.36859833 122.42707993 94.70725891 123.08504059 94.02587891 123.76293945 C93.43996979 124.34139114 92.85406067 124.91984283 92.25039673 125.51582336 C90.78523143 126.93147458 90.78523143 126.93147458 91 129 C90.46375 129.226875 89.9275 129.45375 89.375 129.6875 C86.17539839 131.45570089 83.70962777 133.53670203 81 136 C81 136.66 81 137.32 81 138 C80.34 138 79.68 138 79 138 C80.38914475 142.29718953 82.38031985 144.70687757 85.625 147.8125 C86.85089844 148.99779297 86.85089844 148.99779297 88.1015625 150.20703125 C89.04128906 151.09455078 89.04128906 151.09455078 90 152 C94.25556298 150.34986235 97.09579796 147.17055778 100.23730469 143.98974609 C100.85236374 143.3749791 101.46742279 142.7602121 102.10112 142.1268158 C104.12948258 140.09706176 106.15067226 138.06031925 108.171875 136.0234375 C109.57819697 134.61338475 110.98496164 133.20377342 112.39215088 131.79458618 C116.09222618 128.08687958 119.78625567 124.37320576 123.47906494 120.65826416 C127.24934253 116.86751741 131.02529761 113.08243543 134.80078125 109.296875 C142.2060936 101.87012159 149.60503232 94.43705286 157 87 C155.63760782 84.15776803 154.44766831 82.03972359 152 80 C151.34 80 150.68 80 150 80 C150 79.34 150 78.68 150 78 C149.34 78 148.68 78 148 78 C147.731875 77.401875 147.46375 76.80375 147.1875 76.1875 C146.00082594 74.00152146 144.90400887 72.58667406 143 71 C142.34 71 141.68 71 141 71 C140.773125 70.443125 140.54625 69.88625 140.3125 69.3125 C138.62449964 66.33840412 136.53323483 64.27991135 134 62 C133.34 62 132.68 62 132 62 C131.731875 61.401875 131.46375 60.80375 131.1875 60.1875 C130.00082594 58.00152146 128.90400887 56.58667406 127 55 C126.34 55 125.68 55 125 55 C124.773125 54.443125 124.54625 53.88625 124.3125 53.3125 C122.62449964 50.33840412 120.53323483 48.27991135 118 46 C117.34 46 116.68 46 116 46 C115.731875 45.401875 115.46375 44.80375 115.1875 44.1875 C114.00082594 42.00152146 112.90400887 40.58667406 111 39 C110.34 39 109.68 39 109 39 C109 38.34 109 37.68 109 37 C108.34 37 107.68 37 107 37 C106.731875 36.401875 106.46375 35.80375 106.1875 35.1875 C105.00082594 33.00152146 103.90400887 31.58667406 102 30 C101.34 30 100.68 30 100 30 C99.731875 29.401875 99.46375 28.80375 99.1875 28.1875 C98.00082594 26.00152146 96.90400887 24.58667406 95 23 C94.34 23 93.68 23 93 23 C93 22.34 93 21.68 93 21 C89.47967572 21 88.5614657 21.70351351 86 24 Z M41.88769531 68.39941406 C41.20803711 69.09776367 40.52837891 69.79611328 39.828125 70.515625 C39.08175781 71.27230469 38.33539063 72.02898437 37.56640625 72.80859375 C36.80199219 73.61425781 36.03757812 74.41992188 35.25 75.25 C34.08017578 76.43529297 34.08017578 76.43529297 32.88671875 77.64453125 C28.63616229 81.80527633 28.63616229 81.80527633 26 87 C27.08371539 88.80353919 27.08371539 88.80353919 28.8125 90.5625 C29.45445312 91.25730469 30.09640625 91.95210937 30.7578125 92.66796875 C31.86769531 93.82232422 31.86769531 93.82232422 33 95 C34.26457031 96.32451172 34.26457031 96.32451172 35.5546875 97.67578125 C40.66601479 103.16772205 40.66601479 103.16772205 47 107 C47 106.34 47 105.68 47 105 C47.66 105 48.32 105 49 105 C49 104.34 49 103.68 49 103 C49.66 103 50.32 103 51 103 C52.23472601 101.56504815 53.46322066 100.12376768 54.64453125 98.64453125 C56.60150118 96.27022479 58.82532719 94.17467281 61 92 C62.70768674 90.030312 64.35399152 88.02223899 66 86 C63.2193099 82.39540172 60.25839264 79.17693282 57 76 C55.9171875 74.8553125 55.9171875 74.8553125 54.8125 73.6875 C53.16877727 71.77286049 53.16877727 71.77286049 51 72 C50.773125 71.360625 50.54625 70.72125 50.3125 70.0625 C49.16152622 67.79237701 49.16152622 67.79237701 46.67871094 67.15136719 C43.95114833 66.72920769 43.95114833 66.72920769 41.88769531 68.39941406 Z M-20 182 C-20 195.53 -20 209.06 -20 223 C-13.9053125 223.0309375 -13.9053125 223.0309375 -7.6875 223.0625 C-5.77070435 223.07615601 -5.77070435 223.07615601 -3.81518555 223.09008789 C-2.30371948 223.09383423 -2.30371948 223.09383423 -0.76171875 223.09765625 C0.7857605 223.10551147 0.7857605 223.10551147 2.36450195 223.11352539 C5.10946274 223.11635 5.10946274 223.11635 8 222 C8 221.34 8 220.68 8 220 C8.99 219.505 8.99 219.505 10 219 C10.020625 217.741875 10.04125 216.48375 10.0625 215.1875 C10.07410156 214.47980469 10.08570313 213.77210938 10.09765625 213.04296875 C10.08263217 210.79694539 10.08263217 210.79694539 9 208 C3.48110868 204.94699629 -1.76259194 204.36395339 -8 204 C-8.625 202.125 -8.625 202.125 -9 200 C-6.41073669 197.41073669 -4.97294721 197.62601957 -1.375 197.375 C-0.37210938 197.30023438 0.63078125 197.22546875 1.6640625 197.1484375 C2.82035156 197.07496094 2.82035156 197.07496094 4 197 C4 196.34 4 195.68 4 195 C4.66 195 5.32 195 6 195 C7.56935594 191.86128812 7.35201103 189.46144178 7 186 C5.0166446 183.30497002 3.4613811 181.31463635 0.07568359 180.58569336 C-2.13654327 180.47110872 -4.28780127 180.51419903 -6.5 180.625 C-7.24636719 180.63917969 -7.99273437 180.65335938 -8.76171875 180.66796875 C-12.70720387 180.77271614 -16.07361159 181.21472232 -20 182 Z " fill="#D1D3D5" transform="translate(203,110)"/>
<path d="M0 0 C1.21091309 0.00725098 1.21091309 0.00725098 2.44628906 0.01464844 C23.51358986 0.22340092 23.51358986 0.22340092 28.6875 5.125 C32.30610481 9.36750219 33.01893114 14.67382995 32.6875 20.125 C31.63143998 22.53814649 30.38722703 24.06472481 28.6875 26.125 C28.6875 26.785 28.6875 27.445 28.6875 28.125 C29.47125 28.8675 30.255 29.61 31.0625 30.375 C34.76859093 34.25757145 35.52922428 37.35231191 36 42.625 C35.651076 46.53294878 34.82312429 48.84529126 32.6875 52.125 C30.5 53.5 30.5 53.5 28.6875 54.125 C28.6875 54.785 28.6875 55.445 28.6875 56.125 C24.31579222 58.24173598 20.09121447 58.59493912 15.3125 58.8125 C14.52609131 58.85084961 13.73968262 58.88919922 12.92944336 58.92871094 C-7.13767005 59.74472642 -7.13767005 59.74472642 -10.97306824 56.88827515 C-12.72009559 54.5884268 -12.68694407 53.23736908 -12.68481445 50.36572266 C-12.69104324 49.40107086 -12.69727203 48.43641907 -12.70368958 47.4425354 C-12.69447983 46.40188934 -12.68527008 45.36124329 -12.67578125 44.2890625 C-12.67627975 43.21755951 -12.67677826 42.14605652 -12.67729187 41.04208374 C-12.67495012 38.77413073 -12.66521569 36.50617519 -12.64868164 34.23828125 C-12.62513982 30.77059599 -12.62811394 27.30368209 -12.63476562 23.8359375 C-12.62918714 21.63280792 -12.6220762 19.42968158 -12.61328125 17.2265625 C-12.61419266 16.1899649 -12.61510406 15.15336731 -12.61604309 14.08535767 C-12.60651108 13.11440155 -12.59697906 12.14344543 -12.5871582 11.14306641 C-12.58255081 10.29273834 -12.57794342 9.44241028 -12.57319641 8.5663147 C-12.27459295 5.7700161 -11.55329901 3.64378628 -10.3125 1.125 C-7.07911826 -0.49169087 -3.54957048 -0.02170549 0 0 Z M-3.3125 9.125 C-3.3125 22.655 -3.3125 36.185 -3.3125 50.125 C2.7821875 50.1559375 2.7821875 50.1559375 9 50.1875 C10.91679565 50.20115601 10.91679565 50.20115601 12.87231445 50.21508789 C14.38378052 50.21883423 14.38378052 50.21883423 15.92578125 50.22265625 C17.4732605 50.23051147 17.4732605 50.23051147 19.05200195 50.23852539 C21.79696274 50.24135 21.79696274 50.24135 24.6875 49.125 C24.6875 48.465 24.6875 47.805 24.6875 47.125 C25.6775 46.63 25.6775 46.63 26.6875 46.125 C26.708125 44.866875 26.72875 43.60875 26.75 42.3125 C26.76160156 41.60480469 26.77320313 40.89710938 26.78515625 40.16796875 C26.77013217 37.92194539 26.77013217 37.92194539 25.6875 35.125 C20.16860868 32.07199629 14.92490806 31.48895339 8.6875 31.125 C8.0625 29.25 8.0625 29.25 7.6875 27.125 C10.27676331 24.53573669 11.71455279 24.75101957 15.3125 24.5 C16.31539062 24.42523438 17.31828125 24.35046875 18.3515625 24.2734375 C19.50785156 24.19996094 19.50785156 24.19996094 20.6875 24.125 C20.6875 23.465 20.6875 22.805 20.6875 22.125 C21.3475 22.125 22.0075 22.125 22.6875 22.125 C24.25685594 18.98628812 24.03951103 16.58644178 23.6875 13.125 C21.7041446 10.42997002 20.1488811 8.43963635 16.76318359 7.71069336 C14.55095673 7.59610872 12.39969873 7.63919903 10.1875 7.75 C9.44113281 7.76417969 8.69476563 7.77835937 7.92578125 7.79296875 C3.98029613 7.89771614 0.61388841 8.33972232 -3.3125 9.125 Z " fill="#BFC6CA" transform="translate(186.3125,282.875)"/>
<path d="M0 0 C0.87109375 1.9765625 0.87109375 1.9765625 1 4 C-1 7 -1 7 -3.125 7.4375 C-5.94966354 7.0076599 -7.15879676 6.40424244 -9.5625 5 C-14.87814336 2.19647543 -20.12774956 2.08443407 -26 3 C-31.90268123 5.33807503 -36.11531391 9.2609039 -38.97265625 14.9296875 C-41.57224118 21.25421881 -41.02629037 26.5499767 -39 33 C-36.46599453 38.06801094 -32.97800985 41.3794409 -28 44 C-22.31776697 45.47317153 -15.41685991 45.74259856 -10.046875 43.00390625 C-9.45390625 42.63136719 -8.8609375 42.25882812 -8.25 41.875 C-5 40 -5 40 -2.0625 40.25 C-1.381875 40.4975 -0.70125 40.745 0 41 C0.495 43.475 0.495 43.475 1 46 C0.34 46 -0.32 46 -1 46 C-1 46.66 -1 47.32 -1 48 C-2.6029053 48.81498562 -4.20737278 49.62689927 -5.8125 50.4375 C-6.70582031 50.88996094 -7.59914063 51.34242188 -8.51953125 51.80859375 C-14.28029318 54.57557389 -19.70931893 54.78633513 -26 54 C-33.54375245 51.24293809 -41.05445991 47.20791442 -45.75 40.5 C-46.15734375 39.9328125 -46.5646875 39.365625 -46.984375 38.78125 C-48.08674828 36.84785686 -48.55989984 35.17461257 -49 33 C-49.20625 32.01 -49.4125 31.02 -49.625 30 C-50.72191701 21.63825561 -49.97627786 12.98186864 -45 6 C-38.7604157 -1.71237958 -31.5371749 -5.31526048 -21.796875 -6.80859375 C-14.05765961 -7.33823279 -6.03668415 -4.977858 0 0 Z " fill="#C4C9CC" transform="translate(276,289)"/>
<path d="M0 0 C0.99516632 -0.00143509 0.99516632 -0.00143509 2.01043701 -0.00289917 C3.41239517 -0.00357815 4.81435652 -0.00174353 6.21630859 0.00244141 C8.33829008 0.00775966 10.46005661 0.00250455 12.58203125 -0.00390625 C26.27782271 -0.01318907 26.27782271 -0.01318907 32.109375 1.1328125 C32.769375 1.7928125 33.429375 2.4528125 34.109375 3.1328125 C33.55381944 7.68836806 33.55381944 7.68836806 32.109375 9.1328125 C29.24669933 9.20606418 26.408656 9.22519455 23.546875 9.1953125 C22.74056641 9.19080078 21.93425781 9.18628906 21.10351562 9.18164062 C19.10543744 9.16981768 17.10739717 9.15188164 15.109375 9.1328125 C15.11603683 9.71497025 15.12269867 10.29712799 15.12956238 10.89692688 C15.1958519 16.94742316 15.24114893 22.99781655 15.27416992 29.04858398 C15.28927102 31.30774118 15.30975342 33.56686899 15.33569336 35.82592773 C15.37201808 39.07022343 15.38908808 42.31413206 15.40234375 45.55859375 C15.41782761 46.57117752 15.43331146 47.58376129 15.44926453 48.62702942 C15.44949112 49.56777817 15.44971771 50.50852692 15.44995117 51.4777832 C15.45661301 52.30607132 15.46327484 53.13435944 15.47013855 53.98774719 C15.02281683 56.64747902 14.27098152 57.55731996 12.109375 59.1328125 C9.484375 58.9453125 9.484375 58.9453125 7.109375 58.1328125 C5.91146327 55.73698904 5.9887006 54.26503712 5.99584961 51.59130859 C5.99592514 50.65048431 5.99600067 49.70966003 5.99607849 48.74032593 C6.00382042 47.21370834 6.00382042 47.21370834 6.01171875 45.65625 C6.0131337 44.61586578 6.01454865 43.57548157 6.01600647 42.50357056 C6.02161634 39.17162229 6.03417053 35.83974055 6.046875 32.5078125 C6.05188873 30.25260514 6.05645186 27.99739672 6.06054688 25.7421875 C6.07158897 20.20570636 6.08833673 14.66926418 6.109375 9.1328125 C5.00078125 9.17921875 3.8921875 9.225625 2.75 9.2734375 C1.28648532 9.31096352 -0.17705856 9.34736279 -1.640625 9.3828125 C-2.37023437 9.41632813 -3.09984375 9.44984375 -3.8515625 9.484375 C-7.56206875 9.55183875 -9.46219461 9.47608902 -12.40625 7.1171875 C-13.14101563 6.13492187 -13.14101563 6.13492187 -13.890625 5.1328125 C-11.44132857 1.33640303 -11.44132857 1.33640303 -9.21191406 0.51220703 C-6.11976532 0.00682218 -3.13352755 0.00288084 0 0 Z " fill="#B9C1C5" transform="translate(294.890625,282.8671875)"/>
</svg>
